<?xml version="1.0" encoding="utf-8"?>
<!-- Generator: Adobe Illustrator 16.2.1, SVG Export Plug-In . SVG Version: 6.00 Build 0)  -->
<!DOCTYPE svg PUBLIC "-//W3C//DTD SVG 1.1//EN" "http://www.w3.org/Graphics/SVG/1.1/DTD/svg11.dtd">
<svg version="1.1" id="Layer_1" xmlns="http://www.w3.org/2000/svg" xmlns:xlink="http://www.w3.org/1999/xlink" x="0px" y="0px"
	 width="166.1px" height="46.3px" viewBox="0 0 166.1 46.3" enable-background="new 0 0 166.1 46.3" xml:space="preserve">
<g>
	<path fill="#6F6F6F" d="M20.9,13.1c-1.1-1.2-2.399-2-3.699-2.6C15.9,9.9,14.4,9.6,12.9,9.6c-3.3,0-6.1,1.3-8.399,3.8
		C2.2,16,1,19.2,1,23.2C1,27,2.2,30.2,4.6,32.8C7,35.401,9.8,36.7,13.1,36.7c1.5,0,2.8-0.299,4.101-0.799
		c1.199-0.5,2.5-1.4,3.699-2.601V36h6.4V10.3h-6.4V13.1z M19.2,28.6c-1.301,1.4-3,2.1-5,2.1C12.3,30.7,10.6,30,9.3,28.5
		c-1.3-1.4-2-3.301-2-5.5c0-2.2,0.7-4,2-5.4s2.9-2.1,4.9-2.1s3.699,0.7,5,2.1c1.3,1.4,1.699,3,1.699,5.2
		C21,25.1,20.6,27.2,19.2,28.6z M64,13.1c-1.101-1.2-2.4-2-3.7-2.6C59,9.9,57.5,9.6,56,9.6c-3.3,0-6.101,1.3-8.4,3.8
		s-3.5,5.8-3.5,9.7c0,3.801,1.2,7,3.601,9.6c2.399,2.601,5.199,3.9,8.5,3.9c1.5,0,2.8-0.3,4.1-0.8c1.2-0.5,2.5-1.399,3.7-2.601
		v2.701H70.4V10.3H64V13.1z M62.3,28.6c-1.3,1.4-3,2.1-5,2.1c-1.9,0-3.6-0.699-4.9-2.199c-1.3-1.4-2-3.301-2-5.5c0-2.2,0.7-4,2-5.4
		c1.301-1.4,2.9-2.1,4.9-2.1s3.7,0.7,5,2.1s1.7,3,1.7,5.2C64.1,25.1,63.7,27.2,62.3,28.6z M108.9,10.9c-1.399-0.9-3-1.3-4.8-1.3
		s-3.399,0.4-4.8,1.2c-1.5,0.8-2.7,1.9-3.7,3.5c-0.8-1.5-1.8-2.7-3.1-3.5c-1.3-0.8-2.7-1.2-4.3-1.2c-1.601,0-3,0.3-4.4,0.9
		c-1.3,0.6-2.5,1.5-3.6,2.7v-3h-6.4v25.701h6.4V24.5c0-2.5,0.199-4.3,0.6-5.4s1.1-2,2-2.7c0.9-0.6,1.8-1,2.9-1
		c1,0,1.8,0.3,2.399,0.8c0.7,0.5,1.2,1.3,1.5,2.3s0.5,2.7,0.5,5v12.4h6.4V24.3c0-2.399,0.2-4.2,0.6-5.3c0.4-1.1,1.101-2,1.9-2.6
		c0.899-0.6,1.899-0.9,3-0.9c1.399,0,2.5,0.5,3.2,1.5c0.699,1,1.1,3,1.1,5.901v13h6.4v-15c0-3.101-0.301-5.301-0.9-6.701
		C111.3,12.9,110.3,11.8,108.9,10.9z M135.1,28.401c-1.7,1.699-3.8,2.6-6.1,2.6c-2,0-3.601-0.6-4.9-1.6
		C122.8,28.3,122,26.8,121.7,25h20.5v-1.2c0-4.2-1.301-7.6-3.801-10.2s-5.8-3.9-9.8-3.9c-3.8,0-6.899,1.3-9.399,3.9
		s-3.801,5.8-3.801,9.801c0,3.799,1.301,7,3.801,9.6c2.5,2.5,5.8,3.8,9.699,3.8c2.601,0,4.801-0.5,6.7-1.399
		c1.9-0.9,3.5-2.301,4.8-4.301L135.1,28.401z M124.4,16.6c1.301-1,2.9-1.5,4.7-1.5c1.601,0,3.101,0.4,4.3,1.3
		c1.2,0.9,2.101,2,2.5,3.4H122C122.7,18.3,123.5,17.2,124.4,16.6z M157.4,22.401l8.7-12.101h-7.3l-5,7l-5-7h-7.4l8.7,12.2L140.4,36
		h7.301l6-8.4l6,8.4h7.399L157.4,22.401z M42.7,9.5c-1.2,0-2.2,0.2-3.101,0.7c-0.899,0.4-1.8,1.2-2.899,2.4v-2.2H30.6v25.7H37V22.7
		c0-4.899,1.3-7.299,4.6-7.299c0.601,0,1.101,0.1,1.7,0.3c1-1.8,2.3-3.4,3.6-4.9C45.5,9.9,44.1,9.5,42.7,9.5z"/>
</g>
</svg>
